<svg id="ATT" xmlns="http://www.w3.org/2000/svg" width="171" height="70" viewBox="0 0 171 70">
  <rect id="Rectangle" width="171" height="70" fill="none"/>
  <g id="AT_T_logo_2016" data-name="AT&amp;T_logo_2016" transform="translate(12 5)">
    <path id="path5" d="M45.205,25.016a8.407,8.407,0,0,1-5.546-1.881,6.745,6.745,0,0,1-2.268-5.269,6.7,6.7,0,0,1,1.28-4.16,10.255,10.255,0,0,1,3.391-2.723,7.415,7.415,0,0,1-2.005-4.728C40.057,2.513,42.679,0,46.582,0c3.928,0,6.466,2.3,6.466,5.865,0,3.063-2.239,4.713-4.43,5.924l3.353,3.622,1.885-3.292a1.007,1.007,0,0,1,.987-.539h2.9a.573.573,0,0,1,.523.239.6.6,0,0,1-.073.6l-3.353,5.744L59.9,23.639a.534.534,0,0,1,.163.571.512.512,0,0,1-.493.267h-3.8a1.235,1.235,0,0,1-1.107-.51L52.39,21.455A8.35,8.35,0,0,1,45.205,25.016ZM44.7,13.525c-1.935,1.092-3.055,2.127-3.055,4.189a3.441,3.441,0,0,0,1.085,2.54,3.729,3.729,0,0,0,2.567.991,4.844,4.844,0,0,0,4.251-2.513L44.7,13.525ZM46.642,3.71a2.515,2.515,0,0,0-1.811.659,2.244,2.244,0,0,0-.644,1.646c0,.976.479,1.852,1.766,3.232,2.586-1.494,3.023-2.223,3.023-3.291A2.147,2.147,0,0,0,46.642,3.71ZM67.657,24.477H64.633a.63.63,0,0,1-.658-.659V4.518H57.419a.63.63,0,0,1-.659-.658V1.2a.631.631,0,0,1,.659-.66H74.871a.63.63,0,0,1,.658.66V3.86a.629.629,0,0,1-.658.658H68.315v19.3A.631.631,0,0,1,67.657,24.477Zm-37.626,0H27.006a.631.631,0,0,1-.659-.66V4.518H19.793a.63.63,0,0,1-.659-.658V1.2a.631.631,0,0,1,.659-.66H37.245a.631.631,0,0,1,.659.66V3.86a.63.63,0,0,1-.659.658H30.691v19.3A.631.631,0,0,1,30.03,24.477Zm-8.5,0H18.422a.841.841,0,0,1-.869-.63l-1.765-5.085H6.12L4.351,23.847a.837.837,0,0,1-.868.63H.552A.541.541,0,0,1,.1,24.24.578.578,0,0,1,.042,23.7L8.154,1.138a.818.818,0,0,1,.868-.6h4.011a.846.846,0,0,1,.9.6L22.044,23.7a.586.586,0,0,1-.05.55A.544.544,0,0,1,21.534,24.477ZM10.968,4.967,7.5,14.841H14.41L10.968,4.967Z" transform="translate(70.275 17.568)"/>
    <path id="path9" d="M29.943,59.863a29.915,29.915,0,0,1-18.362-6.291c-.019-.016-.028-.035-.023-.049a.026.026,0,0,1,.027-.015.085.085,0,0,1,.036.01c3.18,1.775,8.94,3.891,18.323,3.891a42.388,42.388,0,0,0,12.937-1.919,27.579,27.579,0,0,0,6.758-3.1.092.092,0,0,1,.044-.015.02.02,0,0,1,.02.011c0,.011,0,.033-.034.06a29.835,29.835,0,0,1-19.726,7.42ZM31.976,55.1a49.143,49.143,0,0,1-18.382-3.161,24.634,24.634,0,0,1-6.535-3.848,15.623,15.623,0,0,1-4.149-5.267.061.061,0,0,1,0-.053.018.018,0,0,1,.015-.008.062.062,0,0,1,.042.03c1.887,2.735,5.282,5.02,9.819,6.607a43.369,43.369,0,0,0,13.95,2.248,60.563,60.563,0,0,0,18.866-2.9c5.775-1.953,9.974-4.672,12.144-7.865.017-.026.036-.041.05-.041a.017.017,0,0,1,.015.008.066.066,0,0,1,0,.056A28.8,28.8,0,0,1,56,44.654a16.321,16.321,0,0,1-3.718,4.462A25.508,25.508,0,0,1,43.077,53.6,41.555,41.555,0,0,1,31.976,55.1Zm-1.037-8.11A53.243,53.243,0,0,1,11.83,43.8,26.976,26.976,0,0,1,1.954,37.7,6.018,6.018,0,0,1,.446,35.092,29.448,29.448,0,0,1,0,29.931c0-.036.015-.055.029-.055s.027.017.034.047a10.9,10.9,0,0,0,2.126,3.931,17.933,17.933,0,0,0,4.549,3.9,26.372,26.372,0,0,0,7.177,2.986,39.737,39.737,0,0,0,10.009,1.191,61.736,61.736,0,0,0,12.25-1.307A69.27,69.27,0,0,0,47.49,37.31a39.757,39.757,0,0,0,8.5-4.412c2.222-1.6,3.534-3.191,3.8-4.6.007-.033.021-.055.035-.055s.027.02.027.064c.027.555.04,1.055.04,1.623a22.2,22.2,0,0,1-1.106,7.4C57.814,39.6,52.95,46.992,30.939,46.992ZM33.7,34.88a87.568,87.568,0,0,1-14.01-1.035,49.232,49.232,0,0,1-9.829-2.57,24.644,24.644,0,0,1-6.109-3.3A9.508,9.508,0,0,1,.9,24.747,1.963,1.963,0,0,1,.746,23.3a29.894,29.894,0,0,1,2.14-6.2c.012-.023.027-.031.038-.031a.019.019,0,0,1,.015.008.045.045,0,0,1,0,.039,7.21,7.21,0,0,0-.266,1.742c0,2.868,2.281,5.558,6.424,7.576a35.823,35.823,0,0,0,15.311,3.106,71.387,71.387,0,0,0,16.672-2.386c6.584-1.729,11.533-4.049,13.935-6.532a5.333,5.333,0,0,0,1.754-3.867.051.051,0,0,1,.007-.04.018.018,0,0,1,.014-.006c.012,0,.026.012.036.031a29.223,29.223,0,0,1,1.96,5.178,7.055,7.055,0,0,1,.071,3.8c-.8,2.844-3.649,5.2-8.244,6.811A52.7,52.7,0,0,1,33.7,34.88Zm-.063-11.536A63.681,63.681,0,0,1,14.4,20.506c-5.806-1.933-9-4.491-9-7.2a3.755,3.755,0,0,1,.965-1.819,29.931,29.931,0,0,1,4.215-4.378.084.084,0,0,1,.049-.024.017.017,0,0,1,.016.009c.006.011,0,.032-.019.055A4.88,4.88,0,0,0,9.392,10.22c0,2.172,1.377,7.225,14.135,7.225a52,52,0,0,0,19.266-3.357c4.322-1.784,7.115-4.081,7.115-5.851a1.212,1.212,0,0,0-.189-.691.048.048,0,0,1-.01-.047.02.02,0,0,1,.019-.01.065.065,0,0,1,.038.017A35.254,35.254,0,0,1,52.6,10.376c1.55,1.761,2.066,2.593,2.066,4.049,0,2.23-1.845,4.425-5.062,6.023C45.793,22.342,40.271,23.343,33.639,23.343Zm-4.968-11.4a36.338,36.338,0,0,1-12.109-1.673C13.856,9.3,12.3,8,12.3,6.7c0-.879.808-1.552,2.111-2.353A29.82,29.82,0,0,1,45.26,4.22c1.223.73,1.805,1.2,1.805,1.883,0,1.411-1.936,2.866-5.312,3.991A42.889,42.889,0,0,1,28.671,11.939Z" transform="translate(0.134 0.115)" fill="#00a8e0"/>
  </g>
</svg>
