<?xml version="1.0" encoding="UTF-8"?>
<svg width="20px" height="19px" viewBox="0 0 20 19" version="1.1" xmlns="http://www.w3.org/2000/svg" xmlns:xlink="http://www.w3.org/1999/xlink">
    <title>Cart</title>
    <g id="Page-1" stroke="none" stroke-width="1" fill="none" fill-rule="evenodd">
        <g id="RuralFi---Home-Page" transform="translate(-1201.000000, -31.000000)" fill="#00C4BE" fill-rule="nonzero">
            <g id="Group-15" transform="translate(1195.000000, 24.000000)">
                <path d="M13.4999022,22.6956522 C14.4203647,22.6956522 15.1665471,23.4353556 15.1665471,24.3478261 C15.1665471,25.2602965 14.4203647,26 13.4999022,26 C12.5794396,26 11.8332572,25.2602965 11.8332572,24.3478261 C11.8332572,23.4353556 12.5794396,22.6956522 13.4999022,22.6956522 Z M22.6664492,22.6956522 C23.5869118,22.6956522 24.3330942,23.4353556 24.3330942,24.3478261 C24.3330942,25.2602965 23.5869118,26 22.6664492,26 C21.7459867,26 20.9998043,25.2602965 20.9998043,24.3478261 C20.9998043,23.4353556 21.7459867,22.6956522 22.6664492,22.6956522 Z M10.1666123,7 C10.5306976,7 10.8483982,7.23349928 10.9588614,7.56979435 L10.9837287,7.66396164 L11.6832592,11.1304348 L25.1664166,11.1304348 C25.6565639,11.1304348 26.0332112,11.545038 25.9976781,12.0163565 L25.9849872,12.1112704 L24.6504564,19.0483266 C24.4243682,20.1767266 23.4475989,20.9956978 22.3150184,21.0418757 L22.1664558,21.0434783 L14.0825281,21.0433266 C12.9222219,21.0653694 11.9065268,20.2943333 11.6164706,19.1947637 L11.5828001,19.0495166 L9.48328789,8.65217391 L6.83332246,8.65217391 C6.40596484,8.65217391 6.05374333,8.33327115 6.00560637,7.92242615 L6,7.82608696 C6,7.40243996 6.32169596,7.05327669 6.73613946,7.00555769 L6.83332246,7 L10.1666123,7 Z M24.1580964,12.7826087 L12.0165882,12.7826087 L13.2172723,18.726456 C13.2893584,19.0862357 13.5903857,19.3516465 13.9632177,19.3873607 L14.0665614,19.3913043 L22.1824224,19.391456 C22.5523751,19.3984841 22.8782246,19.1636407 22.9896004,18.8269017 L23.0145301,18.7326427 L24.1580964,12.7826087 Z" id="Cart"></path>
            </g>
        </g>
    </g>
</svg>