<svg xmlns="http://www.w3.org/2000/svg" width="120" height="120" viewBox="0 0 120 120">
  <g id="Group_3" data-name="Group 3" transform="translate(-1088 -849)">
    <g id="Oval_Copy_3" data-name="Oval Copy 3" transform="translate(1088 849)" fill="none" stroke="#f2f2f2" stroke-miterlimit="10" stroke-width="1">
      <circle cx="60" cy="60" r="60" stroke="none"/>
      <circle cx="60" cy="60" r="59.5" fill="none"/>
    </g>
    <g id="check-circle" transform="translate(1128 889)">
      <path id="Shape" d="M20,40A20.005,20.005,0,0,1,12.215,1.572a20.005,20.005,0,0,1,15.57,36.856A19.875,19.875,0,0,1,20,40ZM20,3.871A16.132,16.132,0,0,0,8.593,31.408,16.133,16.133,0,0,0,31.407,8.592,16.025,16.025,0,0,0,20,3.871ZM16.7,29.833a.96.96,0,0,1-.687-.287l-7.321-7.38A.97.97,0,0,1,8.7,20.8l1.832-1.817a.968.968,0,0,1,1.369.005l4.821,4.861,11.4-11.308a.968.968,0,0,1,1.369.005l1.817,1.832a.967.967,0,0,1-.005,1.368L17.383,29.552A.959.959,0,0,1,16.7,29.833Z" fill="#00c4be"/>
    </g>
  </g>
</svg>
