<svg xmlns="http://www.w3.org/2000/svg" width="120" height="120" viewBox="0 0 120 120">
  <g id="Circle_1" data-name="Circle 1" transform="translate(-233 -849)">
    <g id="Oval" transform="translate(233 849)" fill="none" stroke="#f2f2f2" stroke-miterlimit="10" stroke-width="1">
      <circle cx="60" cy="60" r="60" stroke="none"/>
      <circle cx="60" cy="60" r="59.5" fill="none"/>
    </g>
    <g id="box" transform="translate(273 889)">
      <path id="Shape" d="M36.25,40H3.75A3.754,3.754,0,0,1,0,36.25V15.61a3.83,3.83,0,0,1,.2-1.188L4.148,2.562A3.739,3.739,0,0,1,7.7,0H32.3a3.737,3.737,0,0,1,3.555,2.562L39.8,14.422A3.611,3.611,0,0,1,40,15.61V36.25A3.754,3.754,0,0,1,36.25,40ZM3.75,18.75v17.5h32.5V18.75Zm18.125-15V15H36.047L32.3,3.75ZM7.7,3.75,3.953,15H18.125V3.75Z" fill="#00c4be"/>
    </g>
  </g>
</svg>
