<svg xmlns="http://www.w3.org/2000/svg" width="30.857" height="24" viewBox="0 0 30.857 24">
  <g id="credit-card" transform="translate(0 0)">
    <path id="Shape" d="M28.281,24H2.577A2.577,2.577,0,0,1,0,21.429V2.571A2.577,2.577,0,0,1,2.577,0h25.7a2.577,2.577,0,0,1,2.577,2.571V21.429A2.577,2.577,0,0,1,28.281,24ZM2.577,12v9.107a.322.322,0,0,0,.321.322h25.06a.323.323,0,0,0,.322-.322V12ZM2.9,2.571a.322.322,0,0,0-.321.321v2.25h25.7V2.893a.322.322,0,0,0-.322-.321ZM19.929,18.857H12.643A.644.644,0,0,1,12,18.214V16.071a.644.644,0,0,1,.644-.643h7.285a.643.643,0,0,1,.643.643v2.143A.643.643,0,0,1,19.929,18.857Zm-10.286,0H5.786a.644.644,0,0,1-.643-.643V16.071a.644.644,0,0,1,.643-.643H9.643a.644.644,0,0,1,.644.643v2.143A.644.644,0,0,1,9.643,18.857Z" fill="#00c4be"/>
  </g>
</svg>
