<svg xmlns="http://www.w3.org/2000/svg" width="24" height="32" viewBox="0 0 24 32">
  <g id="file-contract" transform="translate(0 0)">
    <path id="Shape" d="M21,32H3a3,3,0,0,1-3-3V3.006A3.014,3.014,0,0,1,3,0H15.753a3.019,3.019,0,0,1,2.119.881l5.243,5.243A3.029,3.029,0,0,1,24,8.248V29A3.006,3.006,0,0,1,21,32ZM3,3.006V29H21V11H14.5A1.5,1.5,0,0,1,13,9.5v-6.5Zm13,.243V8h4.756ZM12,26c-.023,0-.047,0-.07,0a1,1,0,0,1-.879-.68L10,22.162l-.663,1.993A2.7,2.7,0,0,1,6.775,26H6a1,1,0,0,1,0-2h.775a.694.694,0,0,0,.662-.478l1.138-3.415a1.5,1.5,0,0,1,2.848,0l.868,2.6a2.588,2.588,0,0,1,1.642-.557,2.757,2.757,0,0,1,2.483,1.443.7.7,0,0,0,.635.406H18a1,1,0,1,1,0,2h-.95a2.689,2.689,0,0,1-2.414-1.49A.7.7,0,0,0,14,24.1a.683.683,0,0,0-.627.387l-.479.958A.994.994,0,0,1,12,26ZM10.5,11h-5a.5.5,0,0,1-.5-.5v-1A.5.5,0,0,1,5.5,9h5a.5.5,0,0,1,.5.5v1A.5.5,0,0,1,10.5,11Zm0-4h-5A.5.5,0,0,1,5,6.5v-1A.5.5,0,0,1,5.5,5h5a.5.5,0,0,1,.5.5v1A.5.5,0,0,1,10.5,7Z" fill="#00c4be"/>
  </g>
</svg>
