<svg xmlns="http://www.w3.org/2000/svg" width="34.286" height="24" viewBox="0 0 34.286 24">
  <g id="money-bill-wave-alt" transform="translate(0 0)">
    <path id="Shape" d="M7.246,24a15.81,15.81,0,0,1-6.237-1.2A1.709,1.709,0,0,1,0,21.218v-17a1.7,1.7,0,0,1,1.728-1.7,1.85,1.85,0,0,1,.554.086,16.177,16.177,0,0,0,4.964.735,41.156,41.156,0,0,0,9.9-1.67A41.161,41.161,0,0,1,27.038,0a15.814,15.814,0,0,1,6.239,1.2,1.714,1.714,0,0,1,1.01,1.579v17a1.7,1.7,0,0,1-1.728,1.7A1.823,1.823,0,0,1,32,21.395a16.184,16.184,0,0,0-4.964-.735,41.16,41.16,0,0,0-9.9,1.67A41.16,41.16,0,0,1,7.246,24ZM2.571,5.359V20.648a13.478,13.478,0,0,0,4.675.781,38.7,38.7,0,0,0,9.264-1.591,43.028,43.028,0,0,1,10.53-1.749,19.043,19.043,0,0,1,4.674.553V3.353a13.468,13.468,0,0,0-4.674-.781,38.7,38.7,0,0,0-9.263,1.59l-.01,0A43.066,43.066,0,0,1,7.246,5.911,19.047,19.047,0,0,1,2.571,5.359ZM17.143,17.216c-2.363,0-4.286-2.317-4.286-5.165s1.923-5.164,4.286-5.164,4.286,2.317,4.286,5.164S19.506,17.216,17.143,17.216Z" fill="#00c4be"/>
  </g>
</svg>
