<svg xmlns="http://www.w3.org/2000/svg" width="182.323" height="39.833" viewBox="0 0 182.323 39.833">
  <g id="Rural-Fi-Horizontal" transform="translate(-0.137 -0.083)">
    <path id="Shape" d="M.759,21.709A.76.76,0,0,1,0,20.95V.748A.77.77,0,0,1,.681.005L6.881,0A6.2,6.2,0,0,1,9.487,11.808a2.652,2.652,0,0,0,.311.155A5.519,5.519,0,0,1,12.708,16.8a8.64,8.64,0,0,0,.275,2.51,1.114,1.114,0,0,0,.311.526.82.82,0,0,1,.085,0,.812.812,0,0,1,.751.5.845.845,0,0,1-.5.992,3.439,3.439,0,0,1-.372.031H13.2a1.71,1.71,0,0,1-1.392-.992A7.821,7.821,0,0,1,11.22,16.8a3.87,3.87,0,0,0-1.768-3.286,6.88,6.88,0,0,0-2.512-1.085.694.694,0,0,1-.1-.043.13.13,0,0,0-.054-.019H1.517V20.95A.76.76,0,0,1,.759,21.709ZM1.517,1.516V10.88H7.006a4.69,4.69,0,0,0-.124-9.365Z" transform="translate(63.513 9.873)" fill="#1d2a39"/>
    <path id="Path" d="M0,9.05a6.182,6.182,0,1,0,12.364,0V.774a.742.742,0,0,0-.774-.745.753.753,0,0,0-.742.745V9.05a4.69,4.69,0,1,1-9.366,0V.774A.742.742,0,1,0,0,.774Z" transform="translate(83.723 16.329)" fill="#1d2a39"/>
    <path id="Path-2" data-name="Path" d="M0,14.41a.742.742,0,0,0,.774.745.728.728,0,0,0,.71-.745V7.747A.469.469,0,0,1,1.546,7.5,13.622,13.622,0,0,1,3.375,3.965a5.481,5.481,0,0,1,4.4-2.483A.753.753,0,0,0,8.52.74.732.732,0,0,0,7.778,0,7.3,7.3,0,0,0,1.709,3.717a2.361,2.361,0,0,0-.217.372V.743A.727.727,0,0,0,.782,0,.741.741,0,0,0,.008.743Z" transform="translate(104.084 16.413)" fill="#1d2a39"/>
    <path id="Shape-2" data-name="Shape" d="M13.636,15.211a.741.741,0,0,1-.741-.773V12.175a7.12,7.12,0,0,1-5.706,3A7.408,7.408,0,0,1,0,7.586,7.4,7.4,0,0,1,7.189,0,7.078,7.078,0,0,1,12.9,2.973V.743A.732.732,0,0,1,13.626,0h.02a.732.732,0,0,1,.732.743v13.7a.741.741,0,0,1-.741.773ZM7.189,1.453a5.477,5.477,0,0,0-4.015,1.79,6.324,6.324,0,0,0-1.69,4.349A5.924,5.924,0,0,0,7.189,13.7a5.493,5.493,0,0,0,4.028-1.775A6.287,6.287,0,0,0,12.9,7.591,5.941,5.941,0,0,0,7.189,1.453Z" transform="translate(116.326 16.383)" fill="#1d2a39"/>
    <path id="Path-3" data-name="Path" d="M0,20.961a.759.759,0,0,0,1.517,0V.759A.759.759,0,0,0,0,.759Z" transform="translate(138.857 9.862)" fill="#1d2a39"/>
    <path id="Path-4" data-name="Path" d="M.59,1.171h6.6A.594.594,0,0,0,7.782.553.561.561,0,0,0,7.193,0H.59A.552.552,0,0,0,0,.553a.578.578,0,0,0,.589.618" transform="translate(146.568 20.229)" fill="#1d2a39"/>
    <path id="Path-5" data-name="Path" d="M0,20.952a.759.759,0,0,0,1.517,0v-9.33H10.63a.759.759,0,1,0,0-1.517H1.517V1.517H11.932a.759.759,0,0,0,0-1.517H.713A.748.748,0,0,0,0,.742Z" transform="translate(161.447 9.872)" fill="#1d2a39"/>
    <path id="Shape-3" data-name="Shape" d="M.759,20.174A.76.76,0,0,1,0,19.415l0-13.7a.733.733,0,0,1,.736-.743H.775a.741.741,0,0,1,.743.744v13.7A.76.76,0,0,1,.759,20.174Zm0-17.943A.76.76,0,0,1,0,1.472V.759a.759.759,0,1,1,1.517,0v.713A.76.76,0,0,1,.759,2.23Z" transform="translate(180.942 11.408)" fill="#1d2a39"/>
    <path id="Path-6" data-name="Path" d="M26.649,0C36.7.49,45.041,5.33,50.549,14.9a4.022,4.022,0,0,1,.844,2.552,2.637,2.637,0,0,1-2.28,2.291A2.523,2.523,0,0,1,46.4,18.281a23.244,23.244,0,0,0-4.851-6.606A22.244,22.244,0,0,0,28.881,5.6,22.689,22.689,0,0,0,11.12,10.506a24,24,0,0,0-6.132,7.618,2.562,2.562,0,0,1-4.414.455,2.452,2.452,0,0,1-.212-2.87A27.327,27.327,0,0,1,6.368,7.662,28.054,28.054,0,0,1,20.121.588,33.735,33.735,0,0,1,26.648,0" transform="translate(0.137 0.083)" fill="#00c4be"/>
    <path id="Path-7" data-name="Path" d="M18.654,0A21.714,21.714,0,0,1,29.541,3.153a21.844,21.844,0,0,1,7.31,7.876A2.643,2.643,0,1,1,32.184,13.5a15.216,15.216,0,0,0-8.175-7.2,14.768,14.768,0,0,0-5.4-1A15.392,15.392,0,0,0,5.464,12.72c-.192.324-.371.657-.575.974a2.647,2.647,0,0,1-3.535.909A2.568,2.568,0,0,1,.32,11.114,20.519,20.519,0,0,1,15.985.182,24.166,24.166,0,0,1,18.661,0" transform="translate(7.226 10.407)" fill="#00c4be"/>
    <path id="Path-8" data-name="Path" d="M10.049,5.294A5.017,5.017,0,0,0,5.376,8.67c-.1.276-.174.567-.286.84A2.635,2.635,0,0,1,.056,8,10.477,10.477,0,0,1,9.159.048a10.232,10.232,0,0,1,7.108,1.979A10.492,10.492,0,0,1,20.11,7.49a2.644,2.644,0,0,1-3.044,3.5,2.69,2.69,0,0,1-2.094-2.112,4.875,4.875,0,0,0-3.724-3.448,10.371,10.371,0,0,0-1.2-.146" transform="translate(15.668 20.72)" fill="#00c4be"/>
    <path id="Path-9" data-name="Path" d="M3.99,0A3.992,3.992,0,1,1,0,3.992,3.992,3.992,0,0,1,3.99,0" transform="translate(21.793 31.932)" fill="#ffca29"/>
  </g>
</svg>
