<?xml version="1.0" encoding="UTF-8"?>
<svg width="16px" height="16px" viewBox="0 0 16 16" version="1.1" xmlns="http://www.w3.org/2000/svg" xmlns:xlink="http://www.w3.org/1999/xlink">
    <title>Search</title>
    <g id="Page-1" stroke="none" stroke-width="1" fill="none" fill-rule="evenodd">
        <g id="RuralFi---Home-Page" transform="translate(-1000.000000, -33.000000)" fill="#1D2A39" fill-rule="nonzero">
            <g id="Group-19" transform="translate(991.000000, 24.000000)">
                <path d="M16.2,9 C20.1764502,9 23.4,12.2235498 23.4,16.2 C23.4,17.9001127 22.8107512,19.4625989 21.8253427,20.6943697 L24.7656854,23.6343146 C25.0781049,23.946734 25.0781049,24.453266 24.7656854,24.7656854 C24.4772983,25.0540726 24.0235134,25.0762562 23.7096804,24.8322363 L23.6343146,24.7656854 L20.6943697,21.8253427 C19.4625989,22.8107512 17.9001127,23.4 16.2,23.4 C12.2235498,23.4 9,20.1764502 9,16.2 C9,12.2235498 12.2235498,9 16.2,9 Z M16.2,10.6 C13.1072054,10.6 10.6,13.1072054 10.6,16.2 C10.6,19.2927946 13.1072054,21.8 16.2,21.8 C17.7178438,21.8 19.0946467,21.1961321 20.1032682,20.2155369 C20.1175931,20.1928966 20.1353801,20.1732491 20.1543146,20.1543146 L20.2165077,20.1022694 C21.1965307,19.0937379 21.8,17.7173429 21.8,16.2 C21.8,13.1072054 19.2927946,10.6 16.2,10.6 Z" id="Search"></path>
            </g>
        </g>
    </g>
</svg>