<svg xmlns="http://www.w3.org/2000/svg" width="120" height="120" viewBox="0 0 120 120">
  <g id="Group_1" data-name="Group 1" transform="translate(-518 -849)">
    <g id="Oval_Copy" data-name="Oval Copy" transform="translate(518 849)" fill="none" stroke="#f2f2f2" stroke-miterlimit="10" stroke-width="1">
      <circle cx="60" cy="60" r="60" stroke="none"/>
      <circle cx="60" cy="60" r="59.5" fill="none"/>
    </g>
    <g id="sim-card" transform="translate(560 889)">
      <path id="Shape" d="M30,40H5a5.006,5.006,0,0,1-5-5V5A5.006,5.006,0,0,1,5,0H25L35,10V35A5.006,5.006,0,0,1,30,40ZM5,3.75A1.252,1.252,0,0,0,3.75,5V35A1.252,1.252,0,0,0,5,36.25H30A1.252,1.252,0,0,0,31.25,35V11.555l-7.8-7.8ZM25,32.5H22.5v-5h5V30A2.5,2.5,0,0,1,25,32.5Zm-5,0H15v-5h5v5Zm-7.5,0H10A2.5,2.5,0,0,1,7.5,30V27.5h5v5Zm15-7.5H7.5V20h20v5Zm0-7.5h-5v-5H25A2.5,2.5,0,0,1,27.5,15v2.5Zm-7.5,0H15v-5h5v5Zm-7.5,0h-5V15A2.5,2.5,0,0,1,10,12.5h2.5v5Z" fill="#00c4be"/>
    </g>
  </g>
</svg>
