<svg xmlns="http://www.w3.org/2000/svg" width="171.922" height="70" viewBox="0 0 171.922 70">
  <g id="TMobile" transform="translate(-0.078)">
    <rect id="Rectangle_Copy_12" data-name="Rectangle Copy 12" width="171" height="70" transform="translate(1)" fill="none"/>
    <g id="T-Mobile_logo" transform="translate(0 22)">
      <path id="path3209" d="M4.381,2.249A2.259,2.259,0,0,1,3.286,4.2a2.142,2.142,0,0,1-2.191,0A2.259,2.259,0,0,1,0,2.249,2.259,2.259,0,0,1,1.095.3,2.142,2.142,0,0,1,3.286.3,2.259,2.259,0,0,1,4.381,2.249Z" transform="translate(123.148 0.746)" fill="#999b9e"/>
      <rect id="rect3211" width="5.576" height="5.69" transform="translate(160.906 12.866)" fill="#999b9e"/>
      <rect id="rect3213" width="5.576" height="5.69" transform="translate(50.328 12.866)" fill="#999b9e"/>
      <rect id="rect3215" width="5.576" height="5.69" transform="translate(33.604 12.866)" fill="#999b9e"/>
      <rect id="rect3217" width="5.576" height="5.69" transform="translate(17.135 12.866)" fill="#999b9e"/>
      <rect id="rect3219" width="5.576" height="5.69" transform="translate(0.078 12.866)" fill="#999b9e"/>
      <path id="path3221" d="M13.051,1.348h.661c4.273,0,6.264,2.286,7.1,8.381l1.323-.059L21.955,0H.214L0,9.671l1.273.059A13.543,13.543,0,0,1,2.332,4.982,6.045,6.045,0,0,1,8.066,1.348h.926V22.389c0,2.227-.132,2.931-.661,3.458a3.638,3.638,0,0,1-2.339.586H4.978v1.406H17.066V26.433H16.045a3.618,3.618,0,0,1-2.332-.586c-.529-.528-.661-1.231-.661-3.458V1.348" transform="translate(0.417 0.161)" fill="#ed008c"/>
      <path id="path3223" d="M12.984,27.026,20.028,2.447V21.735c0,2.1-.12,2.845-.6,3.357a3.038,3.038,0,0,1-2.111.569h-.358v1.365h9.957V25.66H26.4a3.043,3.043,0,0,1-2.111-.569c-.478-.512-.6-1.252-.6-3.357V5.292c0-2.105.119-2.9.6-3.414A3.452,3.452,0,0,1,26.4,1.309h.518V0H19.192L13.377,19.857,7.687,0H0V1.309H.717c2.111,0,2.509.455,2.509,3.186V20.141c0,2.5-.119,3.528-.478,4.267A2.453,2.453,0,0,1,.637,25.66H0v1.365H8.2V25.66H7.687a2.6,2.6,0,0,1-2.356-1.195c-.472-.8-.592-1.536-.592-4.324V2.447l7,24.579h1.241" transform="translate(57.996 0.975)" fill="#999b9e"/>
      <path id="path3225" d="M8.04,19.8C3.231,19.8,0,15.844,0,9.957,0,3.908,3.2,0,8.165,0A7.151,7.151,0,0,1,13.92,2.752a11.27,11.27,0,0,1,2.2,7.148A11.194,11.194,0,0,1,13.9,17.069,7.316,7.316,0,0,1,8.04,19.8ZM8.006,1.309A3.7,3.7,0,0,0,4.779,3.755a15.17,15.17,0,0,0-.922,6.089c0,5.819,1.368,8.647,4.182,8.647a3.39,3.39,0,0,0,3.171-2.14,15.311,15.311,0,0,0,1.05-6.45,15.169,15.169,0,0,0-.916-6.145A3.717,3.717,0,0,0,8.006,1.309Z" transform="translate(85.312 8.77)" fill="#999b9e"/>
      <path id="path3227" d="M10.116,27.652c-1.8,0-2.653-.362-4.586-1.934a.889.889,0,0,0-.671-.342c-.4,0-.646.289-1.633,1.935H1.912a11.543,11.543,0,0,0,.4-4.04V4.779c0-2.667-.362-3.243-2.038-3.243H0V.284L5.656,0V11.265A4.906,4.906,0,0,1,7.48,9.033a5.185,5.185,0,0,1,2.87-.782c4.288,0,7.168,3.75,7.168,9.33a12.277,12.277,0,0,1-2.09,7.255A6.536,6.536,0,0,1,10.116,27.652ZM9.787,9.672a3.96,3.96,0,0,0-3.254,2.218c-.827,1.405-1.2,3.265-1.2,6.031a13.867,13.867,0,0,0,1.112,6.209,3.541,3.541,0,0,0,3.264,2.155,3.183,3.183,0,0,0,2.942-2.155,15.853,15.853,0,0,0,1-6.379,14.589,14.589,0,0,0-.976-6.045A3.115,3.115,0,0,0,9.787,9.672Z" transform="translate(102.398 0.691)" fill="#999b9e"/>
      <path id="path3229" d="M6,0,.193.341V1.593H.632c1.667,0,2.026.569,2.026,3.186v9.615c0,2.618-.359,3.243-2.026,3.243H0v1.308H8.672V17.638H8.045C6.367,17.638,6,17.069,6,14.395V0" transform="translate(121.282 9.054)" fill="#999b9e"/>
      <path id="path3231" d="M6.008,0,.2.285V1.536H.632c1.673,0,2.031.569,2.031,3.243V22.758C2.663,25.433,2.3,26,.632,26H0V27.31H8.676V26H8.039c-1.678,0-2.031-.569-2.031-3.243V0" transform="translate(131.353 0.691)" fill="#999b9e"/>
      <path id="path3233" d="M7.6,19.8C2.984,19.8,0,15.869,0,9.786A11.906,11.906,0,0,1,2.034,2.76,6.389,6.389,0,0,1,12.46,2.631a12.476,12.476,0,0,1,2.145,7.154H3.7c.02,2.985.381,5.089,1.1,6.43a3.592,3.592,0,0,0,3.432,1.992c2.146,0,3.531-1.165,4.939-4.154l1.194.626C12.653,18.221,10.564,19.8,7.6,19.8ZM7.4,1.422c-2.222,0-3.624,2.66-3.658,6.942h7.163c.026-2.87-.555-5.053-1.637-6.145A2.553,2.553,0,0,0,7.4,1.422Z" transform="translate(141.27 8.77)" fill="#999b9e"/>
      <g id="g3235" transform="translate(166.5 8.308)">
        <g id="g3237">
          <path id="path3239" d="M2.005,4.008a2.034,2.034,0,0,1-1-.264A1.885,1.885,0,0,1,.266,3a2,2,0,0,1,0-2A1.846,1.846,0,0,1,1.02.259,2.069,2.069,0,0,1,2.006,0a2.062,2.062,0,0,1,.985.259A1.852,1.852,0,0,1,3.74,1a2.013,2.013,0,0,1,0,2A1.868,1.868,0,0,1,3,3.744,2.05,2.05,0,0,1,2.005,4.008Zm0-3.674A1.709,1.709,0,0,0,1.185.55a1.563,1.563,0,0,0-.626.618,1.666,1.666,0,0,0,0,1.666,1.58,1.58,0,0,0,.619.618,1.669,1.669,0,0,0,1.661,0,1.57,1.57,0,0,0,.617-.618,1.672,1.672,0,0,0,0-1.666A1.551,1.551,0,0,0,2.826.55,1.717,1.717,0,0,0,2.006.334ZM1.475,3.112H1.127V.954h.743a1.814,1.814,0,0,1,.55.06.524.524,0,0,1,.272.209.554.554,0,0,1,.1.316.572.572,0,0,1-.17.411.668.668,0,0,1-.448.2.577.577,0,0,1,.184.114,2.381,2.381,0,0,1,.319.428l.263.421-.426,0-.193-.34a1.8,1.8,0,0,0-.362-.5A.45.45,0,0,0,1.68,2.2H1.475v.916Zm0-1.868V1.9H1.9a.686.686,0,0,0,.414-.091A.312.312,0,0,0,2.372,1.4a.318.318,0,0,0-.148-.113,1.091,1.091,0,0,0-.351-.038Z" transform="translate(0.067 -0.002)" fill="#999b9e"/>
        </g>
      </g>
    </g>
  </g>
</svg>
