<svg id="Verizon" xmlns="http://www.w3.org/2000/svg" width="171" height="70" viewBox="0 0 171 70">
  <rect id="Rectangle" width="171" height="70" fill="none"/>
  <g id="Verizon_2015_logo_-vector" transform="translate(0 11)">
    <path id="Path" d="M16.632,0,7.3,19.959,3.794,12.4H0l5.769,12.37H8.836L20.4,0Z" transform="translate(150.392)" fill="#d52b1e"/>
    <path id="Shape" d="M112.242,34.252a14.153,14.153,0,0,1-5.358-1,12.132,12.132,0,0,1-4.134-2.764,13.164,13.164,0,0,1-3.606-9.3,13.165,13.165,0,0,1,3.606-9.323,12.092,12.092,0,0,1,4.134-2.751,14.9,14.9,0,0,1,10.676-.017,12.126,12.126,0,0,1,4.122,2.706,13.065,13.065,0,0,1,3.658,9.385,13.163,13.163,0,0,1-3.606,9.3,12.133,12.133,0,0,1-4.134,2.764A14.152,14.152,0,0,1,112.242,34.252Zm-.052-20.583a4.7,4.7,0,0,0-4.074,2.04,9.578,9.578,0,0,0-1.384,5.47,9.536,9.536,0,0,0,1.394,5.451,4.753,4.753,0,0,0,4.064,2.059,4.851,4.851,0,0,0,3.577-1.412c1.3-1.3,1.974-3.413,1.958-6.1C117.725,16.477,115.655,13.669,112.189,13.669Zm-75.521,20.5a12.9,12.9,0,0,1-9.6-3.762,12.03,12.03,0,0,1-2.581-4.154,14.779,14.779,0,0,1-.895-5.182A13.343,13.343,0,0,1,27.1,11.8a11.737,11.737,0,0,1,3.975-2.746,13.056,13.056,0,0,1,5.1-1,11.778,11.778,0,0,1,8.29,2.989,12.066,12.066,0,0,1,3.265,5.1,21.087,21.087,0,0,1,1.023,7.089H30.977a6.563,6.563,0,0,0,1.771,3.989,5.519,5.519,0,0,0,3.973,1.494,4.463,4.463,0,0,0,4.418-2.572h7.224a9.673,9.673,0,0,1-4.132,5.821A13.016,13.016,0,0,1,36.669,34.174Zm-.338-20.738c-2.856,0-4.64,1.635-5.3,4.859H41.113C40.793,15.344,38.917,13.436,36.331,13.436Zm98.182,20.012H127l-.026-24.663h7.277v3.379h.156a9.26,9.26,0,0,1,3.151-3.048,8.653,8.653,0,0,1,4.359-1.059,8.173,8.173,0,0,1,6.276,2.605,9.8,9.8,0,0,1,2.3,6.7V33.446h-7.511V18.789c0-2.783-1.477-4.444-3.95-4.444a4.139,4.139,0,0,0-3.274,1.5,5.9,5.9,0,0,0-1.247,3.856V33.447Zm-118.037,0h-7.9L0,8.784H7.771l4.808,15.853h.1L17.49,8.784h7.563L16.476,33.447Zm82.356,0h-21.1V27.781L89.294,14.865v-.157H77.729V8.758H98.312v5.8L86.877,27.365v.156H98.832v5.925Zm-23.181,0H68.088V8.784H75.65V33.446Zm-17.568,0H50.547V8.784h7.2V12.89H57.9a9.266,9.266,0,0,1,2.833-3.2A6.69,6.69,0,0,1,64.5,8.654a4.078,4.078,0,0,1,1.533.182v6.5h-.156a11.037,11.037,0,0,0-1.5-.108,6.055,6.055,0,0,0-4.592,1.73,7.242,7.242,0,0,0-1.7,5.161v11.33ZM75.65,6.7H68.088V0H75.65V6.7Z" transform="translate(0 3.612)"/>
  </g>
</svg>
