<svg xmlns="http://www.w3.org/2000/svg" width="120" height="120" viewBox="0 0 120 120">
  <g id="Group_2" data-name="Group 2" transform="translate(-803 -849)">
    <g id="Oval_Copy_2" data-name="Oval Copy 2" transform="translate(803 849)" fill="none" stroke="#f2f2f2" stroke-miterlimit="10" stroke-width="1">
      <circle cx="60" cy="60" r="60" stroke="none"/>
      <circle cx="60" cy="60" r="59.5" fill="none"/>
    </g>
    <g id="wifi" transform="translate(840 894)">
      <path id="Shape" d="M22.855,32a4.572,4.572,0,1,1,4.571-4.572A4.577,4.577,0,0,1,22.855,32ZM34.09,21.3h0a1.16,1.16,0,0,1-.756-.28,16.087,16.087,0,0,0-20.965,0,1.164,1.164,0,0,1-1.571-.057L8.341,18.535A.208.208,0,0,1,8.3,18.5l-.02-.021a1.137,1.137,0,0,1,.1-1.593,21.929,21.929,0,0,1,28.949,0l.05.049a1.139,1.139,0,0,1-.022,1.6l-2.457,2.429A1.145,1.145,0,0,1,34.09,21.3ZM42.1,13.185a1.154,1.154,0,0,1-.783-.307,27.4,27.4,0,0,0-36.943,0,1.171,1.171,0,0,1-.787.3,1.153,1.153,0,0,1-.813-.333L.334,10.42A.076.076,0,0,1,.311,10.4L.3,10.385A1.152,1.152,0,0,1,.363,8.778a33.208,33.208,0,0,1,44.986,0,.073.073,0,0,0,.021.023l.015.013a1.125,1.125,0,0,1-.022,1.607L42.92,12.849A1.16,1.16,0,0,1,42.1,13.185Z" transform="translate(0.002 0.001)" fill="#00c4be"/>
    </g>
  </g>
</svg>
